<svg xmlns="http://www.w3.org/2000/svg" width="32" height="32" fill="none"><path fill="#000" d="M0 0h32v32H0z"/><path fill="#fff" d="M17.086 22.4V9.362h4.979c.956 0 1.782.17 2.476.508.7.338 1.237.82 1.61 1.444.38.624.569 1.362.569 2.213 0 .858-.193 1.599-.578 2.223-.385.624-.93 1.108-1.636 1.452-.7.339-1.528.508-2.485.508h-2.625v4.69h-2.31Zm2.31-6.668h2.537c.776 0 1.389-.195 1.838-.586.45-.397.674-.936.674-1.619 0-.676-.225-1.21-.674-1.6-.45-.392-1.062-.587-1.838-.587h-2.537v4.392ZM5.887 22.4V9.362h4.979c.956 0 1.782.17 2.476.508.7.338 1.236.82 1.61 1.444.379.624.569 1.362.569 2.213 0 .858-.193 1.599-.578 2.223-.385.624-.93 1.108-1.636 1.452-.7.339-1.529.508-2.485.508H8.197v4.69h-2.31Zm2.31-6.668h2.537c.776 0 1.389-.195 1.838-.586.449-.397.674-.936.674-1.619 0-.676-.225-1.21-.674-1.6-.45-.392-1.062-.587-1.838-.587H8.197v4.392Z"/></svg>